<svg xmlns="http://www.w3.org/2000/svg" width="210" height="155" fill="none"><path fill="url(#a)" d="M86.111 57.577a1 1 0 0 1-.624.927L40.78 76.629c-.832.337-.832 1.516 0 1.853l44.706 18.125a1 1 0 0 1 .624.927v9.08a1 1 0 0 1-1.383.924l-59.11-24.485a1 1 0 0 1-.618-.924v-9.147a1 1 0 0 1 .617-.924l59.111-24.485a1 1 0 0 1 1.383.924z"/><path fill="url(#b)" d="M123.889 97.534a1 1 0 0 1 .624-.927l44.706-18.125c.832-.337.832-1.516 0-1.853l-44.706-18.125a1 1 0 0 1-.624-.927v-9.08a1 1 0 0 1 1.383-.924l59.111 24.485a1 1 0 0 1 .617.924v9.147a1 1 0 0 1-.617.924l-59.111 24.485a1 1 0 0 1-1.383-.924z"/><defs><linearGradient id="a" x1="55.556" x2="55.556" y1="47" y2="108.111" gradientUnits="userSpaceOnUse"><stop stop-color="#FE6E36"/><stop offset="1" stop-color="#F8C3A7"/></linearGradient><linearGradient id="b" x1="154.444" x2="154.444" y1="108.111" y2="47" gradientUnits="userSpaceOnUse"><stop stop-color="#FE6E36"/><stop offset="1" stop-color="#F8C3A7"/></linearGradient></defs></svg>