<svg xmlns="http://www.w3.org/2000/svg" width="210" height="155" fill="none"><path fill="url(#a)" d="M188.377 136.552a1 1 0 0 0 1.224-1.225l-8.787-32.817a1 1 0 0 0-1.674-.448l-6.881 6.881a1 1 0 0 1-1.414 0l-58.907-58.915a1 1 0 0 0-1.414 0L81.979 78.573a1 1 0 0 1-1.414 0L19.002 17l-.002.001.002 17.289a1 1 0 0 0 .292.707l61.27 61.27a1 1 0 0 0 1.415 0l28.545-28.545a1 1 0 0 1 1.414 0l50.064 50.073a1 1 0 0 1 0 1.414l-6.882 6.882a1 1 0 0 0 .449 1.673z"/><defs><linearGradient id="a" x1="181.511" x2="6.573" y1="137.449" y2="29.427" gradientUnits="userSpaceOnUse"><stop stop-color="#FE6E36"/><stop offset="1" stop-color="#FE6E36" stop-opacity="0"/></linearGradient></defs></svg>