<svg xmlns="http://www.w3.org/2000/svg" width="210" height="155" fill="none"><path fill="url(#a)" fill-rule="evenodd" d="M77.4 108.286c.004.005.011.001.01-.005l-4.695-96.33a1 1 0 0 0-1-.951h-2.401a1 1 0 0 0-1 .951l-4.672 95.842a1.05 1.05 0 0 1-.442.794c-3.137 2.256-5.2 5.893-5.2 10.042C58 125.495 63.618 131 70.484 131c6.085 0 11.182-4.347 12.28-10.117a1 1 0 0 0 .016-.18v-4.211q0-.09-.017-.178c-.638-3.341-2.601-6.197-5.355-8.038-.007-.005-.015.005-.009.01" clip-rule="evenodd"/><path fill="url(#b)" d="M169.063 120.655h-97.43a1 1 0 0 1-1-1v-2.392a1 1 0 0 1 1-1h97.43a1 1 0 0 1 1 1v2.392a1 1 0 0 1-1 1"/><defs><linearGradient id="a" x1="70.632" x2="70.632" y1="147.842" y2="-36.368" gradientUnits="userSpaceOnUse"><stop stop-color="#FE6E36"/><stop offset="1" stop-color="#F1EDEB"/></linearGradient><linearGradient id="b" x1="76.948" x2="172.738" y1="120.474" y2="120.474" gradientUnits="userSpaceOnUse"><stop stop-color="#FC8253"/><stop offset="1" stop-color="#F3D6CA"/></linearGradient></defs></svg>