<svg xmlns="http://www.w3.org/2000/svg" width="210" height="155" fill="none"><path fill="url(#a)" d="M102.537 5.531c1.194-1.713 3.729-1.713 4.922 0l23.459 33.658c1.387 1.989-.037 4.715-2.461 4.715H81.539c-2.424 0-3.847-2.726-2.46-4.715z"/><path fill="url(#b)" d="M107.463 150.469c-1.194 1.713-3.729 1.713-4.922 0l-23.46-33.658c-1.386-1.989.038-4.715 2.462-4.715h46.918c2.424 0 3.847 2.726 2.461 4.715z"/><path fill="url(#c)" d="M177.469 75.54c1.713 1.193 1.713 3.728 0 4.921l-33.658 23.459c-1.989 1.387-4.715-.037-4.715-2.461V54.541c0-2.424 2.726-3.847 4.715-2.46z"/><path fill="url(#d)" d="M32.531 80.46c-1.713-1.193-1.713-3.728 0-4.921l33.658-23.46c1.989-1.386 4.715.038 4.715 2.462v46.917c0 2.425-2.726 3.848-4.715 2.462z"/><circle cx="105.245" cy="78.245" r="15.64" fill="url(#e)"/><defs><linearGradient id="a" x1="104.998" x2="104.998" y1="2" y2="57.873" gradientUnits="userSpaceOnUse"><stop stop-color="#FE6E36"/><stop offset="1" stop-color="#FE6E36" stop-opacity="0"/></linearGradient><linearGradient id="b" x1="105.002" x2="105.002" y1="154" y2="98.127" gradientUnits="userSpaceOnUse"><stop stop-color="#FE6E36"/><stop offset="1" stop-color="#FE6E36" stop-opacity="0"/></linearGradient><linearGradient id="c" x1="181" x2="125.127" y1="78" y2="78" gradientUnits="userSpaceOnUse"><stop stop-color="#FE6E36"/><stop offset="1" stop-color="#FE6E36" stop-opacity="0"/></linearGradient><linearGradient id="d" x1="29" x2="84.873" y1="78" y2="78" gradientUnits="userSpaceOnUse"><stop stop-color="#FE6E36"/><stop offset="1" stop-color="#FE6E36" stop-opacity="0"/></linearGradient><linearGradient id="e" x1="105.245" x2="105.245" y1="62.605" y2="93.884" gradientUnits="userSpaceOnUse"><stop stop-color="#FE6E36"/><stop offset="1" stop-color="#FE6E36" stop-opacity="0"/></linearGradient></defs></svg>