<svg xmlns="http://www.w3.org/2000/svg" width="210" height="155" fill="none"><path fill="url(#a)" d="M105.028 65.657c.006-.006.005-.016-.003-.02L60.252 43.251c-1.106-.553-1.105-2.132 0-2.684l41.805-20.87a6.6 6.6 0 0 1 5.901 0l41.81 20.935c1.104.553 1.104 2.13-.001 2.683l-44.724 22.362c-.013.006-.025-.01-.015-.02"/><path fill="url(#b)" d="M158.085 106.887V52.689a1.5 1.5 0 0 0-2.17-1.342l-45.07 22.504a1.5 1.5 0 0 0-.83 1.342v57.38a1.5 1.5 0 0 0 2.17 1.342l42.254-21.127a6.62 6.62 0 0 0 3.646-5.901"/><path fill="url(#c)" d="M52 106.887c0 2.52 1.392 4.84 3.647 5.901L97.9 133.915a1.5 1.5 0 0 0 2.171-1.342v-57.38a1.5 1.5 0 0 0-.83-1.342L54.17 51.347A1.5 1.5 0 0 0 52 52.689z"/><defs><linearGradient id="a" x1="89.887" x2="104.2" y1="30.787" y2="78.779" gradientUnits="userSpaceOnUse"><stop stop-color="#FF6F37"/><stop offset="1" stop-color="#F8C3A7"/></linearGradient><linearGradient id="b" x1="158.085" x2="134.05" y1="56.888" y2="135" gradientUnits="userSpaceOnUse"><stop stop-color="#FE7038"/><stop offset="1" stop-color="#F8BEA1"/></linearGradient><linearGradient id="c" x1="76.035" x2="76.035" y1="50.263" y2="135" gradientUnits="userSpaceOnUse"><stop stop-color="#FAA57F"/><stop offset="1" stop-color="#FE733D"/></linearGradient></defs></svg>