<svg xmlns="http://www.w3.org/2000/svg" width="107" height="20" fill="none"><path fill="#FE6E36" d="M30.648 16.994q-1.774-1.248-2.18-3.67h2.418c.51 2.07 2.055 3.104 4.645 3.104 1.217 0 2.162-.25 2.853-.744.682-.493 1.028-1.18 1.028-2.061 0-.752-.239-1.326-.707-1.706-.469-.38-1.316-.687-2.524-.905l-3.157-.566c-1.423-.25-2.467-.712-3.125-1.374q-.997-1.007-.995-2.717c0-1.43.543-2.554 1.645-3.37 1.093-.817 2.59-1.221 4.489-1.221s3.387.404 4.505 1.204 1.784 1.957 2.015 3.46H39.23q-.555-2.872-4.218-2.87c-1.15 0-2.063.235-2.754.696S31.23 5.345 31.23 6.129c0 .703.222 1.237.658 1.576q.656.522 2.384.85l3.14.59c1.489.282 2.583.767 3.281 1.463q1.052 1.032 1.053 2.804.001 2.258-1.686 3.557-1.69 1.296-4.637 1.294c-1.965 0-3.584-.413-4.768-1.245zm16.78.202a7.2 7.2 0 0 1-2.787-2.919c-.666-1.244-.995-2.675-.995-4.276s.329-3.047.995-4.3a7.26 7.26 0 0 1 2.787-2.91C48.62 2.095 50 1.756 51.547 1.756q2.319.001 4.119 1.035a7.06 7.06 0 0 1 2.787 2.91c.666 1.245.995 2.683.995 4.3s-.33 3.024-.995 4.277c-.666 1.244-1.595 2.222-2.787 2.918-1.192.695-2.573 1.05-4.12 1.05-1.545 0-2.918-.347-4.118-1.05m-.715-3.872c.46.962 1.11 1.705 1.948 2.239q1.258.8 2.886.8t2.886-.8c.838-.534 1.488-1.277 1.948-2.24q.69-1.43.69-3.322-.002-1.889-.682-3.33c-.68-1.441-1.101-1.714-1.94-2.24-.838-.525-1.809-.792-2.91-.792s-2.072.267-2.91.793q-1.261.786-1.941 2.239c-.452.962-.683 2.077-.683 3.33q0 1.879.691 3.323zM61.914 1.998h2.327v14.058h8.863v1.956H61.923V1.998zm19.732 0h2.631l6.487 16.014h-2.442l-1.677-4.284H79.17l-1.701 4.284h-2.327L81.63 1.998zm4.284 9.863-2.993-7.632-3.017 7.632zm6.898-9.863h7.613c1.759 0 3.083.388 3.971 1.156.896.768 1.34 1.908 1.34 3.412 0 1.366-.386 2.44-1.151 3.233q-1.148 1.19-3.33 1.447l4.859 6.758h-2.853l-4.744-6.71H95.13v6.71h-2.327V1.998zm7.424 7.348c1.085 0 1.891-.218 2.417-.662.526-.437.789-1.124.789-2.046s-.263-1.584-.789-2.029-1.332-.662-2.417-.662h-5.098v5.391h5.098zM19.177 3.315C16.784.777 13.019-.444 9.344.146a10.84 10.84 0 0 0-7.605 4.956C.094 7.712-.31 10.857.629 13.727c.855 2.708 2.951 5.028 5.615 6.184l.214.089.32-.63-.205-.114c-1.99-1.1-3.502-2.837-4.259-4.89-1.274-3.339-.296-7.292 2.384-9.62 2.072-1.819 4.654-2.562 7.268-2.094 2.746.493 5.098 2.264 6.463 4.85 1.718 3.266 1.208 7.34-1.3 10.38l-.131.162.444.485.173-.105c1.882-1.156 3.33-3.088 3.97-5.287 1.02-3.411.075-7.267-2.408-9.83z"/></svg>