<svg width="210" height="155" viewBox="0 0 210 155" fill="none" xmlns="http://www.w3.org/2000/svg">
<path d="M102.537 5.5312C103.731 3.8184 106.266 3.8184 107.459 5.5312L130.918 39.189C132.305 41.1779 130.881 43.9044 128.457 43.9044H81.5394C79.1151 43.9044 77.692 41.1779 79.0783 39.189L102.537 5.5312Z" fill="url(#paint0_linear_39_344)"/>
<path d="M107.463 150.469C106.269 152.182 103.734 152.182 102.541 150.469L79.0817 116.811C77.6955 114.822 79.1186 112.096 81.5429 112.096L128.461 112.096C130.885 112.096 132.308 114.822 130.922 116.811L107.463 150.469Z" fill="url(#paint1_linear_39_344)"/>
<path d="M177.469 75.5392C179.182 76.733 179.182 79.2677 177.469 80.4615L143.811 103.92C141.822 105.307 139.096 103.883 139.096 101.459L139.096 54.5415C139.096 52.1172 141.822 50.6941 143.811 52.0803L177.469 75.5392Z" fill="url(#paint2_linear_39_344)"/>
<path d="M32.5312 80.4608C30.8184 79.267 30.8184 76.7323 32.5312 75.5385L66.189 52.0796C68.1779 50.6934 70.9044 52.1165 70.9044 54.5408L70.9044 101.458C70.9044 103.883 68.1779 105.306 66.189 103.92L32.5312 80.4608Z" fill="url(#paint3_linear_39_344)"/>
<ellipse cx="105.245" cy="78.2445" rx="15.6399" ry="15.6399" fill="url(#paint4_linear_39_344)"/>
<defs>
<linearGradient id="paint0_linear_39_344" x1="104.998" y1="2" x2="104.998" y2="57.8725" gradientUnits="userSpaceOnUse">
<stop stop-color="#FE6E36"/>
<stop offset="1" stop-color="#FE6E36" stop-opacity="0"/>
</linearGradient>
<linearGradient id="paint1_linear_39_344" x1="105.002" y1="154" x2="105.002" y2="98.1275" gradientUnits="userSpaceOnUse">
<stop stop-color="#FE6E36"/>
<stop offset="1" stop-color="#FE6E36" stop-opacity="0"/>
</linearGradient>
<linearGradient id="paint2_linear_39_344" x1="181" y1="78.0004" x2="125.127" y2="78.0004" gradientUnits="userSpaceOnUse">
<stop stop-color="#FE6E36"/>
<stop offset="1" stop-color="#FE6E36" stop-opacity="0"/>
</linearGradient>
<linearGradient id="paint3_linear_39_344" x1="29" y1="77.9996" x2="84.8725" y2="77.9996" gradientUnits="userSpaceOnUse">
<stop stop-color="#FE6E36"/>
<stop offset="1" stop-color="#FE6E36" stop-opacity="0"/>
</linearGradient>
<linearGradient id="paint4_linear_39_344" x1="105.245" y1="62.6046" x2="105.245" y2="93.8844" gradientUnits="userSpaceOnUse">
<stop stop-color="#FE6E36"/>
<stop offset="1" stop-color="#FE6E36" stop-opacity="0"/>
</linearGradient>
</defs>
</svg>
