<svg width="210" height="155" viewBox="0 0 210 155" fill="none" xmlns="http://www.w3.org/2000/svg">
<path fill-rule="evenodd" clip-rule="evenodd" d="M77.3991 108.286C77.4036 108.291 77.4112 108.287 77.4109 108.281L72.7145 11.9513C72.6885 11.4186 72.249 11 71.7156 11H69.3137C68.7804 11 68.3409 11.4186 68.3149 11.9513L63.6422 107.793C63.6267 108.111 63.4589 108.401 63.2002 108.587C60.0628 110.843 58 114.48 58 118.629C58 125.495 63.6176 131 70.4835 131C76.569 131 81.6661 126.653 82.7631 120.883C82.7743 120.824 82.7797 120.764 82.7797 120.703V116.492C82.7797 116.432 82.7743 116.372 82.7631 116.314C82.1253 112.973 80.1616 110.117 77.4078 108.276C77.4008 108.271 77.3932 108.281 77.3991 108.286Z" fill="url(#paint0_linear_39_262)"/>
<path d="M169.063 120.655H71.6323C71.08 120.655 70.6323 120.207 70.6323 119.655V117.263C70.6323 116.711 71.08 116.263 71.6323 116.263H169.063C169.615 116.263 170.063 116.711 170.063 117.263V119.655C170.063 120.207 169.615 120.655 169.063 120.655Z" fill="url(#paint1_linear_39_262)"/>
<defs>
<linearGradient id="paint0_linear_39_262" x1="70.6316" y1="147.842" x2="70.6316" y2="-36.3684" gradientUnits="userSpaceOnUse">
<stop stop-color="#FE6E36"/>
<stop offset="1" stop-color="#F1EDEB"/>
</linearGradient>
<linearGradient id="paint1_linear_39_262" x1="76.9481" y1="120.474" x2="172.738" y2="120.474" gradientUnits="userSpaceOnUse">
<stop stop-color="#FC8253"/>
<stop offset="1" stop-color="#F3D6CA"/>
</linearGradient>
</defs>
</svg>
