<svg width="210" height="155" viewBox="0 0 210 155" fill="none" xmlns="http://www.w3.org/2000/svg">
<path d="M188.377 136.552C189.12 136.751 189.8 136.071 189.601 135.327L180.814 102.51C180.614 101.766 179.685 101.517 179.14 102.062L172.259 108.943C171.868 109.334 171.235 109.334 170.845 108.943L111.938 50.0278C111.548 49.6372 110.915 49.6372 110.524 50.0277L81.9791 78.5728C81.5886 78.9633 80.9554 78.9633 80.5648 78.5727L19.0019 17.0003C19.0017 17.0001 19.0014 17 19.0011 17C19.0005 17 19 17.0005 19 17.0011L19.0015 34.29C19.0016 34.5552 19.1069 34.8095 19.2944 34.997L80.5648 96.2674C80.9554 96.6579 81.5885 96.6579 81.9791 96.2674L110.524 67.7223C110.915 67.3318 111.548 67.3318 111.938 67.7224L162.002 117.795C162.393 118.186 162.393 118.819 162.002 119.209L155.12 126.091C154.576 126.636 154.825 127.565 155.569 127.764L188.377 136.552Z" fill="url(#paint0_linear_39_487)"/>
<defs>
<linearGradient id="paint0_linear_39_487" x1="181.511" y1="137.449" x2="6.57268" y2="29.4273" gradientUnits="userSpaceOnUse">
<stop stop-color="#FE6E36"/>
<stop offset="1" stop-color="#FE6E36" stop-opacity="0"/>
</linearGradient>
</defs>
</svg>
