<svg width="210" height="155" viewBox="0 0 210 155" fill="none" xmlns="http://www.w3.org/2000/svg">
<path d="M86.1111 57.577C86.1111 57.9842 85.8642 58.3507 85.4868 58.5037L40.7811 76.6288C39.9488 76.9663 39.9488 78.1448 40.7812 78.4823L85.4868 96.6074C85.8642 96.7604 86.1111 97.127 86.1111 97.5342V106.614C86.1111 107.327 85.3868 107.811 84.7284 107.538L25.6173 83.053C25.2436 82.8982 25 82.5336 25 82.1291V72.982C25 72.5775 25.2436 72.2129 25.6173 72.0581L84.7284 47.5727C85.3869 47.3 86.1111 47.7839 86.1111 48.4966V57.577Z" fill="url(#paint0_linear_39_43)"/>
<path d="M123.889 97.5341C123.889 97.1269 124.136 96.7604 124.513 96.6074L169.219 78.4823C170.051 78.1448 170.051 76.9663 169.219 76.6288L124.513 58.5037C124.136 58.3507 123.889 57.9841 123.889 57.5769L123.889 48.4966C123.889 47.7839 124.613 47.3 125.272 47.5727L184.383 72.0581C184.756 72.2129 185 72.5775 185 72.9819L185 82.1291C185 82.5336 184.756 82.8982 184.383 83.053L125.272 107.538C124.613 107.811 123.889 107.327 123.889 106.614L123.889 97.5341Z" fill="url(#paint1_linear_39_43)"/>
<defs>
<linearGradient id="paint0_linear_39_43" x1="55.5556" y1="47" x2="55.5556" y2="108.111" gradientUnits="userSpaceOnUse">
<stop stop-color="#FE6E36"/>
<stop offset="1" stop-color="#F8C3A7"/>
</linearGradient>
<linearGradient id="paint1_linear_39_43" x1="154.444" y1="108.111" x2="154.444" y2="47" gradientUnits="userSpaceOnUse">
<stop stop-color="#FE6E36"/>
<stop offset="1" stop-color="#F8C3A7"/>
</linearGradient>
</defs>
</svg>
