<svg width="107" height="20" viewBox="0 0 107 20" fill="none" xmlns="http://www.w3.org/2000/svg">
<path d="M30.6475 16.9936C29.4636 16.161 28.7401 14.9404 28.4688 13.3236H30.8859C31.3956 15.3931 32.9413 16.4278 35.5311 16.4278C36.7479 16.4278 37.6934 16.1772 38.384 15.6841C39.0664 15.191 39.4117 14.5038 39.4117 13.6227C39.4117 12.8709 39.1733 12.297 38.7047 11.9171C38.236 11.5371 37.3892 11.23 36.1806 11.0117L33.0235 10.4458C31.6012 10.1952 30.557 9.73447 29.8993 9.07161C29.2334 8.40066 28.9045 7.49528 28.9045 6.35548C28.9045 4.92467 29.4471 3.80103 30.5488 2.98458C31.6423 2.16813 33.1386 1.76394 35.0378 1.76394C36.937 1.76394 38.4251 2.16813 39.5433 2.96841C40.6614 3.7687 41.3274 4.92467 41.5576 6.42824H39.2308C38.8609 4.5124 37.455 3.55852 35.0132 3.55852C33.8621 3.55852 32.9495 3.79295 32.2589 4.25372C31.5683 4.71449 31.2312 5.34502 31.2312 6.12914C31.2312 6.83242 31.4532 7.36594 31.8889 7.70546C32.3247 8.05306 33.1222 8.33599 34.2732 8.55425L37.4139 9.14436C38.902 9.42729 39.9955 9.91231 40.6943 10.6075C41.3931 11.2946 41.7467 12.2323 41.7467 13.4125C41.7467 14.9161 41.1876 16.1044 40.0612 16.9694C38.9349 17.8343 37.3892 18.2628 35.4242 18.2628C33.4593 18.2628 31.8396 17.8505 30.6557 17.0179L30.6475 16.9936ZM47.4278 17.1957C46.2274 16.5005 45.2984 15.5224 44.6407 14.2775C43.9747 13.0326 43.6459 11.6018 43.6459 10.0012C43.6459 8.40066 43.9747 6.95368 44.6407 5.7007C45.3066 4.45581 46.2357 3.48577 47.4278 2.79057C48.6199 2.09537 50.0012 1.75586 51.5468 1.75586C53.0925 1.75586 54.4655 2.10346 55.6659 2.79057C56.8662 3.47769 57.7953 4.44773 58.453 5.7007C59.1189 6.94559 59.4478 8.38449 59.4478 10.0012C59.4478 11.618 59.1189 13.0245 58.453 14.2775C57.787 15.5224 56.858 16.5005 55.6659 17.1957C54.4737 17.8909 53.0925 18.2466 51.5468 18.2466C50.0012 18.2466 48.6282 17.899 47.4278 17.1957ZM46.7125 13.3236C47.1729 14.2856 47.8224 15.0293 48.661 15.5628C49.4996 16.0963 50.4616 16.3631 51.5468 16.3631C52.6321 16.3631 53.594 16.0963 54.4326 15.5628C55.2712 15.0293 55.9207 14.2856 56.3811 13.3236C56.8415 12.3698 57.0718 11.2623 57.0718 10.0012C57.0718 8.74017 56.8416 7.63271 56.3894 6.67075C55.9372 5.70879 55.2877 4.957 54.4491 4.43156C53.6105 3.90612 52.6403 3.63936 51.5386 3.63936C50.4369 3.63936 49.4668 3.90612 48.6282 4.43156C47.7896 4.957 47.14 5.7007 46.6879 6.67075C46.2357 7.63271 46.0055 8.74826 46.0055 10.0012C46.0055 11.2542 46.2357 12.3617 46.6961 13.3236H46.7125ZM61.9143 1.99837H64.241V16.0559H73.1039V18.0122H61.9225V1.99837H61.9143ZM81.6462 1.99837H84.2771L90.7639 18.0122H88.3221L86.6449 13.7278H79.1715L77.4696 18.0122H75.1429L81.6297 1.99837H81.6462ZM85.9296 11.8605L82.937 4.22947L79.9196 11.8605H85.9296ZM92.8276 1.99837H100.441C102.2 1.99837 103.524 2.38639 104.412 3.15434C105.308 3.92229 105.752 5.06209 105.752 6.56566C105.752 7.9318 105.366 9.00693 104.601 9.79914C103.836 10.5913 102.726 11.0764 101.271 11.2461L106.13 18.0041H103.277L98.5334 11.2946H95.1296V18.0041H92.8029V1.99837H92.8276ZM100.252 9.34645C101.337 9.34645 102.143 9.12819 102.669 8.68359C103.195 8.24707 103.458 7.55995 103.458 6.63841C103.458 5.71687 103.195 5.05401 102.669 4.6094C102.143 4.1648 101.337 3.94654 100.252 3.94654H95.1543V9.33837H100.252V9.34645Z" fill="#FE6E36"/>
<path d="M19.1767 3.31525C16.7842 0.77697 13.0187 -0.443668 9.34366 0.146442C6.19478 0.615297 3.4241 2.41796 1.73867 5.10175C0.0943427 7.71278 -0.308517 10.8573 0.628748 13.7271C1.4838 16.4351 3.58031 18.7551 6.24411 19.9111L6.45788 20L6.77852 19.3695L6.57298 19.2563C4.58335 18.1569 3.07057 16.4189 2.31418 14.3657C1.03983 11.0271 2.0182 7.07417 4.69845 4.74607C6.7703 2.92723 9.35188 2.18353 11.9664 2.65239C14.7124 3.14549 17.0638 4.91582 18.4286 7.50261C20.1469 10.7684 19.6371 14.8426 17.1295 17.8821L16.998 18.0437L17.442 18.5288L17.6146 18.4237C19.4974 17.2677 20.9444 15.3357 21.5857 13.1369C22.6051 9.72562 21.6596 5.8697 19.1767 3.30717V3.31525Z" fill="#FE6E36"/>
</svg>
