<svg width="210" height="155" viewBox="0 0 210 155" fill="none" xmlns="http://www.w3.org/2000/svg">
<path id="card-2_top" d="M105.028 65.6572C105.034 65.6512 105.033 65.6411 105.025 65.6374L60.2519 43.2508C59.146 42.6978 59.1465 41.1194 60.2527 40.5671L102.057 19.6962C103.913 18.7679 106.101 18.7679 107.958 19.6962L149.768 40.6322C150.872 41.1855 150.872 42.7625 149.767 43.3151L105.043 65.6771C105.03 65.6834 105.018 65.6672 105.028 65.6572Z" fill="url(#paint0_linear_39_116)"/>
<path id="card-2_right" d="M158.085 106.887V52.6887C158.085 51.574 156.912 50.8487 155.915 51.3467L110.845 73.8509C110.336 74.1049 110.015 74.6245 110.015 75.1929V132.573C110.015 133.688 111.188 134.413 112.185 133.915L154.439 112.788C156.693 111.661 158.085 109.34 158.085 106.887Z" fill="url(#paint1_linear_39_116)"/>
<path id="card-2_left" d="M52 106.887C52 109.407 53.3924 111.727 55.6467 112.788L97.8998 133.915C98.8971 134.413 100.071 133.688 100.071 132.573V75.1929C100.071 74.6245 99.7493 74.1049 99.2407 73.8509L54.1701 51.3467C53.1728 50.8487 52 51.574 52 52.6887V106.887Z" fill="url(#paint2_linear_39_116)"/>
<defs>
<linearGradient id="paint0_linear_39_116" x1="89.8867" y1="30.7874" x2="104.2" y2="78.7791" gradientUnits="userSpaceOnUse">
<stop stop-color="#FF6F37"/>
<stop offset="1" stop-color="#F8C3A7"/>
</linearGradient>
<linearGradient id="paint1_linear_39_116" x1="158.085" y1="56.8882" x2="134.05" y2="135" gradientUnits="userSpaceOnUse">
<stop stop-color="#FE7038"/>
<stop offset="1" stop-color="#F8BEA1"/>
</linearGradient>
<linearGradient id="paint2_linear_39_116" x1="76.0353" y1="50.2632" x2="76.0353" y2="135" gradientUnits="userSpaceOnUse">
<stop stop-color="#FAA57F"/>
<stop offset="1" stop-color="#FE733D"/>
</linearGradient>
</defs>
</svg>
