<svg width="20" height="18" viewBox="0 0 20 18" fill="none" xmlns="http://www.w3.org/2000/svg">
<path d="M4.97569 2.57143C4.48958 2.57143 4.05556 2.94107 3.91319 3.47946L2.44444 9H7.77778C8.39236 9 8.88889 9.57455 8.88889 10.2857H11.1111C11.1111 9.57455 11.6076 9 12.2222 9H17.5556L16.0868 3.47946C15.9444 2.94107 15.5139 2.57143 15.0243 2.57143H13.8889C13.2743 2.57143 12.7778 1.99688 12.7778 1.28571C12.7778 0.574554 13.2743 0 13.8889 0H15.0243C16.4861 0 17.7812 1.10491 18.2118 2.72411L19.7882 8.65045C19.9306 9.1808 20 9.73125 20 10.2857V14.1429C20 16.2723 18.5069 18 16.6667 18H14.4444C12.6042 18 11.1111 16.2723 11.1111 14.1429V12.8571H8.88889V14.1429C8.88889 16.2723 7.39583 18 5.55556 18H3.33333C1.49306 18 0 16.2723 0 14.1429V10.2857C0 9.73125 0.0729166 9.1808 0.211806 8.65045L1.78819 2.72411C2.21875 1.10491 3.51042 0 4.97569 0H6.11111C6.72569 0 7.22222 0.574554 7.22222 1.28571C7.22222 1.99688 6.72569 2.57143 6.11111 2.57143H4.97569ZM2.22222 11.5714V14.1429C2.22222 14.854 2.71875 15.4286 3.33333 15.4286H5.55556C6.17014 15.4286 6.66667 14.854 6.66667 14.1429V11.5714H2.22222ZM16.6667 15.4286C17.2812 15.4286 17.7778 14.854 17.7778 14.1429V11.5714H13.3333V14.1429C13.3333 14.854 13.8299 15.4286 14.4444 15.4286H16.6667Z" fill="currentColor"/>
</svg>
