<svg width="18" height="18" viewBox="0 0 18 18" fill="none" xmlns="http://www.w3.org/2000/svg">
<path d="M12.3719 9.84375H5.63162C5.73401 12.1113 6.23892 14.1996 6.95567 15.7289C7.35818 16.5902 7.79247 17.1984 8.19498 17.5711C8.59043 17.9402 8.8623 18 9.00353 18C9.14476 18 9.41663 17.9402 9.81208 17.5711C10.2146 17.1984 10.6489 16.5867 11.0514 15.7289C11.7681 14.1996 12.273 12.1113 12.3754 9.84375H12.3719ZM5.62809 8.15625H12.3684C12.2695 5.88867 11.7646 3.80039 11.0479 2.27109C10.6454 1.41328 10.2111 0.801562 9.80855 0.428906C9.4131 0.0597655 9.14123 0 9 0C8.85877 0 8.5869 0.0597655 8.19145 0.428906C7.78894 0.801562 7.35465 1.41328 6.95214 2.27109C6.23539 3.80039 5.73048 5.88867 5.62809 8.15625ZM3.93331 8.15625C4.05689 5.14688 4.83719 2.35195 5.97764 0.516797C2.72578 1.66289 0.331895 4.6125 0 8.15625H3.93331ZM0 9.84375C0.331895 13.3875 2.72578 16.3371 5.97764 17.4832C4.83719 15.648 4.05689 12.8531 3.93331 9.84375H0ZM14.0667 9.84375C13.9431 12.8531 13.1628 15.648 12.0224 17.4832C15.2742 16.3336 17.6681 13.3875 18 9.84375H14.0667ZM18 8.15625C17.6681 4.6125 15.2742 1.66289 12.0224 0.516797C13.1628 2.35195 13.9431 5.14688 14.0667 8.15625H18Z" fill="currentColor"/>
</svg>
