<svg width="15" height="15" viewBox="0 0 15 15" fill="none" xmlns="http://www.w3.org/2000/svg">
<path d="M4.69136 0.732831C4.4599 0.17908 3.85635 -0.11391 3.2821 0.041375L3.12096 0.0853235C1.22828 0.600986 -0.388997 2.4351 0.0827088 4.66769C1.16968 9.79501 5.20408 13.8295 10.3313 14.9165C12.5668 15.3911 14.3979 13.7709 14.9136 11.8782L14.9575 11.717C15.1158 11.1398 14.8198 10.5363 14.269 10.3077L11.4183 9.12113C10.9349 8.91897 10.3753 9.05961 10.0413 9.46686L8.91034 10.8498C6.85066 9.82724 5.19236 8.11618 4.24016 6.01544L5.53515 4.96068C5.9424 4.6296 6.08011 4.06999 5.88088 3.58362L4.69136 0.732831Z" fill="currentColor"/>
</svg>
