<svg width="17" height="15" viewBox="0 0 17 15" fill="none" xmlns="http://www.w3.org/2000/svg">
<path d="M12.0791 2.04614H1V14H4.08364V10.111H9.99248L12.6885 14H16.1413L13.1685 10.0931C14.0918 9.94977 14.7565 9.60919 15.1628 9.07157C15.5689 8.53394 15.7721 7.67364 15.7721 6.52668V5.63057C15.7721 4.94951 15.6983 4.41189 15.569 3.9997C15.4397 3.5875 15.2181 3.22902 14.9042 2.90644C14.5718 2.60177 14.2026 2.38672 13.7594 2.24339C13.3162 2.11796 12.7622 2.04614 12.0791 2.04614ZM11.5806 7.4766H4.08364V4.68065H11.5806C12.0052 4.68065 12.3006 4.75227 12.4484 4.8778C12.5961 5.00323 12.6885 5.23618 12.6885 5.57676V6.58039C12.6885 6.93877 12.5961 7.17173 12.4484 7.29715C12.3006 7.42258 12.0053 7.4764 11.5806 7.4764V7.4766Z" stroke="currentColor" stroke-width="0.982147" stroke-linecap="round" stroke-linejoin="round"/>
<path d="M15.5213 2.04614C16.0861 2.04614 16.5442 1.58811 16.5442 1.02307C16.5442 0.458029 16.0861 0 15.5213 0C14.9562 0 14.498 0.458029 14.498 1.02307C14.498 1.58811 14.9562 2.04614 15.5213 2.04614Z" fill="currentColor"/>
</svg>
