<svg width="15" height="15" viewBox="0 0 15 15" fill="none" xmlns="http://www.w3.org/2000/svg">
<path d="M7.5 0C3.35685 0 0 3.35685 0 7.5C0 11.6431 3.35685 15 7.5 15C11.6431 15 15 11.6431 15 7.5C15 3.35685 11.6431 0 7.5 0ZM10.9778 5.10181C10.8659 6.2873 10.376 9.16633 10.128 10.494C10.0222 11.0565 9.81653 11.244 9.61693 11.2621C9.18145 11.3014 8.85181 10.9748 8.42843 10.6966C7.76915 10.2641 7.39415 9.99496 6.75605 9.57157C6.01512 9.08468 6.49597 8.81552 6.91633 8.37702C7.02823 8.2621 8.94556 6.51714 8.98185 6.35988C8.9879 6.33871 8.99093 6.26613 8.94556 6.22681C8.9002 6.1875 8.83669 6.20262 8.79133 6.21169C8.7248 6.22681 7.66935 6.92238 5.62802 8.30141C5.32863 8.50706 5.05645 8.60685 4.81452 8.60081C4.54536 8.59476 4.03125 8.4496 3.64718 8.3256C3.17843 8.17439 2.80343 8.09274 2.83669 7.83266C2.85484 7.69657 3.03931 7.56048 3.39315 7.41835C5.57964 6.46573 7.0373 5.83669 7.76613 5.53427C9.8498 4.66935 10.2823 4.51815 10.5635 4.5121C10.627 4.5121 10.7631 4.52722 10.8538 4.5998C10.9143 4.65121 10.9506 4.72379 10.9597 4.80242C10.9748 4.89919 10.9778 4.99899 10.9718 5.09879L10.9778 5.10181Z" fill="currentColor"/>
</svg>
