<svg width="18" height="18" viewBox="0 0 18 18" fill="none" xmlns="http://www.w3.org/2000/svg">
<path d="M5.29772 0.0615456C5.54633 -0.0425936 5.82854 -0.0123598 6.05363 0.135451L9.00336 2.09058L11.9531 0.135451C12.1782 -0.0123598 12.4604 -0.0392343 12.709 0.0615456C12.9576 0.162326 13.1323 0.384042 13.1861 0.646069L13.8882 4.1129L17.3553 4.815C17.6174 4.86875 17.8391 5.05015 17.9399 5.29538C18.0407 5.54062 18.0138 5.82616 17.866 6.05123L15.9107 9.00073L17.866 11.9502C18.0138 12.1753 18.0407 12.4575 17.9399 12.7061C17.8391 12.9547 17.6174 13.1361 17.3553 13.1865L13.8849 13.8852L13.1861 17.3554C13.1323 17.6174 12.9509 17.8391 12.7056 17.9399C12.4604 18.0407 12.1748 18.0138 11.9497 17.866L9 15.9109L6.05027 17.866C5.82518 18.0138 5.54297 18.0407 5.29436 17.9399C5.04575 17.8391 4.86433 17.6174 4.81394 17.3554L4.11514 13.8852L0.644668 13.1831C0.382619 13.1293 0.160885 12.9479 0.060097 12.7027C-0.0406911 12.4575 -0.0138142 12.1719 0.134008 11.9469L2.0893 9.00073L0.134008 6.05123C-0.0138142 5.82616 -0.0406911 5.54397 0.060097 5.29538C0.160885 5.04679 0.382619 4.86539 0.644668 4.815L4.11514 4.11626L4.81729 0.646069C4.87105 0.384042 5.05247 0.162326 5.29772 0.0615456ZM6.28544 9.00073C6.28544 7.50918 7.4949 6.29982 8.98656 6.29982C10.4782 6.29982 11.6877 7.50918 11.6877 9.00073C11.6877 10.4923 10.4782 11.7016 8.98656 11.7016C7.4949 11.7016 6.28544 10.4923 6.28544 9.00073ZM13.3003 9.00073C13.3003 6.61896 11.3685 4.68735 8.98656 4.68735C6.6046 4.68735 4.67283 6.61896 4.67283 9.00073C4.67283 11.3825 6.6046 13.3141 8.98656 13.3141C11.3685 13.3141 13.3003 11.3825 13.3003 9.00073Z" fill="currentColor"/>
</svg>
