<svg width="15" height="15" viewBox="0 0 15 15" fill="none" xmlns="http://www.w3.org/2000/svg">
<path d="M1.05469 1.05469C0 2.10938 0 3.80692 0 7.19866V7.80134C0 11.1931 0 12.8906 1.05469 13.9453C2.10938 15 3.80692 15 7.19866 15H7.79799C11.1931 15 12.8906 15 13.942 13.9453C14.9933 12.8906 15 11.1931 15 7.80134V7.20201C15 3.80692 15 2.10937 13.9453 1.05804C12.8906 0.00669639 11.1931 0 7.80134 0H7.19866C3.80692 0 2.10938 0 1.05469 1.05469ZM2.53125 4.56362H4.24219C4.29911 7.42634 5.56138 8.63839 6.5625 8.88951V4.56362H8.17634V7.03125C9.16406 6.92411 10.202 5.79911 10.5502 4.56362H12.1641C12.0335 5.20647 11.769 5.8125 11.3906 6.34821C11.0123 6.88393 10.5301 7.33594 9.96763 7.67411C10.5938 7.98549 11.1462 8.42411 11.5882 8.96317C12.0301 9.50223 12.3549 10.1317 12.5357 10.8047H10.7612C10.5971 10.2188 10.2656 9.69643 9.80357 9.29799C9.34152 8.89955 8.77567 8.64844 8.17299 8.57478V10.8047H7.97879C4.56027 10.8047 2.61161 8.46094 2.5279 4.56027L2.53125 4.56362Z" fill="currentColor"/>
</svg>
