<svg xmlns="http://www.w3.org/2000/svg"><symbol id="arrow-small" viewBox="0 0 7 5"><g clip-path="url(#clip0_2035_15)"><path d="M5.55204 0.0180664H1.45495C1.05332 0.0180664 0.815606 0.467669 1.04174 0.799587L3.08449 3.79793C3.28264 4.08877 3.71126 4.08933 3.91018 3.79901L5.96452 0.800675C6.19186 0.46886 5.95427 0.0180664 5.55204 0.0180664Z" fill="currentColor"></path></g></symbol><symbol id="arrow" viewBox="0 0 7 10"><path d="M6.23399 5.53108L1.98532 9.77976C1.69166 10.0734 1.21681 10.0734 0.926273 9.77976L0.220244 9.07373C-0.0734146 8.78007 -0.0734146 8.30522 0.220244 8.01468L3.2318 5.00312L0.220244 1.99156C-0.0734146 1.69791 -0.0734146 1.22306 0.220244 0.932521L0.923149 0.220244C1.21681 -0.0734145 1.69166 -0.0734145 1.98219 0.220244L6.23087 4.46892C6.52765 4.76257 6.52765 5.23743 6.23399 5.53108Z" fill="currentColor"></path></symbol><symbol id="burger" viewBox="0 0 16 7"><g clip-path="url(#clip0_2001_5)"><path d="M1 0C0.447716 0 0 0.447716 0 1C0 1.55228 0.447716 2 1 2H15C15.5523 2 16 1.55228 16 1C16 0.447716 15.5523 0 15 0H1Z" fill="currentColor"></path><path d="M1 5C0.447716 5 0 5.44772 0 6C0 6.55228 0.447716 7 1 7H9C9.55228 7 10 6.55228 10 6C10 5.44772 9.55228 5 9 5H1Z" fill="currentColor"></path></g></symbol><symbol id="close" viewBox="0 0 37 36"><line x1="2.06066" y1="1.93934" x2="35.0607" y2="34.9393" stroke="currentColor" stroke-width="3"></line><line y1="-1.5" x2="46.669" y2="-1.5" transform="matrix(-0.707107 0.707107 0.707107 0.707107 36 3)" stroke="currentColor" stroke-width="3"></line></symbol><symbol id="email" viewBox="0 0 21 20"><path d="M16.7503 14.8491C16.7503 14.9914 16.6248 15.117 16.4825 15.117H4.16106C4.01876 15.117 3.89321 14.9914 3.89321 14.8491V8.42057C4.06899 8.62146 4.26151 8.80561 4.47077 8.97302C5.66776 9.89378 6.87312 10.8313 8.03662 11.8023C8.66441 12.3296 9.44287 12.9741 10.3134 12.9741H10.3218H10.3301C11.2007 12.9741 11.9791 12.3296 12.6069 11.8023C13.7704 10.8313 14.9758 9.89378 16.1728 8.97302C16.382 8.80561 16.5746 8.62146 16.7503 8.42057V14.8491ZM16.7503 6.05171C16.7503 6.7632 16.064 7.69233 15.5199 8.11923C14.3982 8.99813 13.2766 9.88541 12.1633 10.7727C11.7197 11.1326 10.9161 11.9027 10.3301 11.9027H10.3218H10.3134C9.72747 11.9027 8.9239 11.1326 8.48026 10.7727C7.36698 9.88541 6.24533 8.99813 5.12367 8.11923C4.37033 7.52492 3.89321 6.69624 3.89321 5.742C3.89321 5.5997 4.01876 5.47414 4.16106 5.47414H16.4825C16.8006 5.47414 16.7503 5.84244 16.7503 6.05171ZM17.8218 5.742C17.8218 5.00539 17.2191 4.40271 16.4825 4.40271H4.16106C3.42446 4.40271 2.82178 5.00539 2.82178 5.742V14.8491C2.82178 15.5857 3.42446 16.1884 4.16106 16.1884H16.4825C17.2191 16.1884 17.8218 15.5857 17.8218 14.8491V5.742Z" fill="currentColor"></path></symbol><symbol id="glasses" viewBox="0 0 20 18"><path d="M4.97569 2.57143C4.48958 2.57143 4.05556 2.94107 3.91319 3.47946L2.44444 9H7.77778C8.39236 9 8.88889 9.57455 8.88889 10.2857H11.1111C11.1111 9.57455 11.6076 9 12.2222 9H17.5556L16.0868 3.47946C15.9444 2.94107 15.5139 2.57143 15.0243 2.57143H13.8889C13.2743 2.57143 12.7778 1.99688 12.7778 1.28571C12.7778 0.574554 13.2743 0 13.8889 0H15.0243C16.4861 0 17.7812 1.10491 18.2118 2.72411L19.7882 8.65045C19.9306 9.1808 20 9.73125 20 10.2857V14.1429C20 16.2723 18.5069 18 16.6667 18H14.4444C12.6042 18 11.1111 16.2723 11.1111 14.1429V12.8571H8.88889V14.1429C8.88889 16.2723 7.39583 18 5.55556 18H3.33333C1.49306 18 0 16.2723 0 14.1429V10.2857C0 9.73125 0.0729166 9.1808 0.211806 8.65045L1.78819 2.72411C2.21875 1.10491 3.51042 0 4.97569 0H6.11111C6.72569 0 7.22222 0.574554 7.22222 1.28571C7.22222 1.99688 6.72569 2.57143 6.11111 2.57143H4.97569ZM2.22222 11.5714V14.1429C2.22222 14.854 2.71875 15.4286 3.33333 15.4286H5.55556C6.17014 15.4286 6.66667 14.854 6.66667 14.1429V11.5714H2.22222ZM16.6667 15.4286C17.2812 15.4286 17.7778 14.854 17.7778 14.1429V11.5714H13.3333V14.1429C13.3333 14.854 13.8299 15.4286 14.4444 15.4286H16.6667Z" fill="currentColor"></path></symbol><symbol id="lang" viewBox="0 0 18 18"><path d="M12.3719 9.84375H5.63162C5.73401 12.1113 6.23892 14.1996 6.95567 15.7289C7.35818 16.5902 7.79247 17.1984 8.19498 17.5711C8.59043 17.9402 8.8623 18 9.00353 18C9.14476 18 9.41663 17.9402 9.81208 17.5711C10.2146 17.1984 10.6489 16.5867 11.0514 15.7289C11.7681 14.1996 12.273 12.1113 12.3754 9.84375H12.3719ZM5.62809 8.15625H12.3684C12.2695 5.88867 11.7646 3.80039 11.0479 2.27109C10.6454 1.41328 10.2111 0.801562 9.80855 0.428906C9.4131 0.0597655 9.14123 0 9 0C8.85877 0 8.5869 0.0597655 8.19145 0.428906C7.78894 0.801562 7.35465 1.41328 6.95214 2.27109C6.23539 3.80039 5.73048 5.88867 5.62809 8.15625ZM3.93331 8.15625C4.05689 5.14688 4.83719 2.35195 5.97764 0.516797C2.72578 1.66289 0.331895 4.6125 0 8.15625H3.93331ZM0 9.84375C0.331895 13.3875 2.72578 16.3371 5.97764 17.4832C4.83719 15.648 4.05689 12.8531 3.93331 9.84375H0ZM14.0667 9.84375C13.9431 12.8531 13.1628 15.648 12.0224 17.4832C15.2742 16.3336 17.6681 13.3875 18 9.84375H14.0667ZM18 8.15625C17.6681 4.6125 15.2742 1.66289 12.0224 0.516797C13.1628 2.35195 13.9431 5.14688 14.0667 8.15625H18Z" fill="currentColor"></path></symbol><symbol id="local" viewBox="0 0 10 13"><path d="M0.00260345 4.76078C0.00260345 2.13049 2.2416 0 5.0013 0C7.761 0 10 2.13049 10 4.76078C10 7.77223 6.87061 11.3819 5.56366 12.7577C5.25644 13.0808 4.74356 13.0808 4.43634 12.7577C3.12939 11.3819 0 7.77223 0 4.76078H0.00260345ZM5.0013 6.46214C5.92033 6.46214 6.66753 5.73767 6.66753 4.8466C6.66753 3.95553 5.92033 3.23107 5.0013 3.23107C4.08227 3.23107 3.33507 3.95553 3.33507 4.8466C3.33507 5.73767 4.08227 6.46214 5.0013 6.46214Z" fill="currentColor"></path></symbol><symbol id="loop" viewBox="0 0 18 18"><path d="M14.6257 7.31143C14.6257 8.92486 14.1019 10.4153 13.2194 11.6245L17.6704 16.0781C18.1099 16.5175 18.1099 17.2311 17.6704 17.6705C17.2309 18.1098 16.5172 18.1098 16.0777 17.6705L11.6267 13.2168C10.4173 14.0991 8.92661 14.6229 7.31286 14.6229C3.27321 14.6229 0 11.3503 0 7.31143C0 3.27257 3.27321 0 7.31286 0C11.3525 0 14.6257 3.27257 14.6257 7.31143ZM7.31286 12.3732C10.1079 12.3732 12.3756 10.1059 12.3756 7.31143C12.3756 4.51692 10.1079 2.24967 7.31286 2.24967C4.5178 2.24967 2.25011 4.51692 2.25011 7.31143C2.25011 10.1059 4.5178 12.3732 7.31286 12.3732Z" fill="currentColor"></path></symbol><symbol id="menu" viewBox="0 0 24 24"><path d="M5.21094 17L19.3131 17.0061" stroke="currentColor" stroke-width="2" stroke-linecap="square" stroke-linejoin="round"></path><path d="M5.21094 12H19.3131" stroke="currentColor" stroke-width="2" stroke-linecap="square" stroke-linejoin="round"></path><path d="M5.21094 7L19.3131 7.00684" stroke="currentColor" stroke-width="2" stroke-linecap="square" stroke-linejoin="round"></path></symbol><symbol id="phone" viewBox="0 0 15 15"><path d="M4.69136 0.732831C4.4599 0.17908 3.85635 -0.11391 3.2821 0.041375L3.12096 0.0853235C1.22828 0.600986 -0.388997 2.4351 0.0827088 4.66769C1.16968 9.79501 5.20408 13.8295 10.3313 14.9165C12.5668 15.3911 14.3979 13.7709 14.9136 11.8782L14.9575 11.717C15.1158 11.1398 14.8198 10.5363 14.269 10.3077L11.4183 9.12113C10.9349 8.91897 10.3753 9.05961 10.0413 9.46686L8.91034 10.8498C6.85066 9.82724 5.19236 8.11618 4.24016 6.01544L5.53515 4.96068C5.9424 4.6296 6.08011 4.06999 5.88088 3.58362L4.69136 0.732831Z" fill="currentColor"></path></symbol><symbol id="play" viewBox="0 0 19 22"><g clip-path="url(#clip0_203_2)"><path d="M0.248413 22.145L19.4984 11.0005L0.248413 -0.144104V22.145Z" fill="currentColor"></path></g></symbol><symbol id="r" viewBox="0 0 17 15"><path d="M12.0791 2.04614H1V14H4.08364V10.111H9.99248L12.6885 14H16.1413L13.1685 10.0931C14.0918 9.94977 14.7565 9.60919 15.1628 9.07157C15.5689 8.53394 15.7721 7.67364 15.7721 6.52668V5.63057C15.7721 4.94951 15.6983 4.41189 15.569 3.9997C15.4397 3.5875 15.2181 3.22902 14.9042 2.90644C14.5718 2.60177 14.2026 2.38672 13.7594 2.24339C13.3162 2.11796 12.7622 2.04614 12.0791 2.04614ZM11.5806 7.4766H4.08364V4.68065H11.5806C12.0052 4.68065 12.3006 4.75227 12.4484 4.8778C12.5961 5.00323 12.6885 5.23618 12.6885 5.57676V6.58039C12.6885 6.93877 12.5961 7.17173 12.4484 7.29715C12.3006 7.42258 12.0053 7.4764 11.5806 7.4764V7.4766Z" stroke="currentColor" stroke-width="0.982147" stroke-linecap="round" stroke-linejoin="round"></path><path d="M15.5213 2.04614C16.0861 2.04614 16.5442 1.58811 16.5442 1.02307C16.5442 0.458029 16.0861 0 15.5213 0C14.9562 0 14.498 0.458029 14.498 1.02307C14.498 1.58811 14.9562 2.04614 15.5213 2.04614Z" fill="currentColor"></path></symbol><symbol id="tg" viewBox="0 0 15 15"><path d="M7.5 0C3.35685 0 0 3.35685 0 7.5C0 11.6431 3.35685 15 7.5 15C11.6431 15 15 11.6431 15 7.5C15 3.35685 11.6431 0 7.5 0ZM10.9778 5.10181C10.8659 6.2873 10.376 9.16633 10.128 10.494C10.0222 11.0565 9.81653 11.244 9.61693 11.2621C9.18145 11.3014 8.85181 10.9748 8.42843 10.6966C7.76915 10.2641 7.39415 9.99496 6.75605 9.57157C6.01512 9.08468 6.49597 8.81552 6.91633 8.37702C7.02823 8.2621 8.94556 6.51714 8.98185 6.35988C8.9879 6.33871 8.99093 6.26613 8.94556 6.22681C8.9002 6.1875 8.83669 6.20262 8.79133 6.21169C8.7248 6.22681 7.66935 6.92238 5.62802 8.30141C5.32863 8.50706 5.05645 8.60685 4.81452 8.60081C4.54536 8.59476 4.03125 8.4496 3.64718 8.3256C3.17843 8.17439 2.80343 8.09274 2.83669 7.83266C2.85484 7.69657 3.03931 7.56048 3.39315 7.41835C5.57964 6.46573 7.0373 5.83669 7.76613 5.53427C9.8498 4.66935 10.2823 4.51815 10.5635 4.5121C10.627 4.5121 10.7631 4.52722 10.8538 4.5998C10.9143 4.65121 10.9506 4.72379 10.9597 4.80242C10.9748 4.89919 10.9778 4.99899 10.9718 5.09879L10.9778 5.10181Z" fill="currentColor"></path></symbol><symbol id="theme-light" viewBox="0 0 18 18"><path d="M5.29772 0.0615456C5.54633 -0.0425936 5.82854 -0.0123598 6.05363 0.135451L9.00336 2.09058L11.9531 0.135451C12.1782 -0.0123598 12.4604 -0.0392343 12.709 0.0615456C12.9576 0.162326 13.1323 0.384042 13.1861 0.646069L13.8882 4.1129L17.3553 4.815C17.6174 4.86875 17.8391 5.05015 17.9399 5.29538C18.0407 5.54062 18.0138 5.82616 17.866 6.05123L15.9107 9.00073L17.866 11.9502C18.0138 12.1753 18.0407 12.4575 17.9399 12.7061C17.8391 12.9547 17.6174 13.1361 17.3553 13.1865L13.8849 13.8852L13.1861 17.3554C13.1323 17.6174 12.9509 17.8391 12.7056 17.9399C12.4604 18.0407 12.1748 18.0138 11.9497 17.866L9 15.9109L6.05027 17.866C5.82518 18.0138 5.54297 18.0407 5.29436 17.9399C5.04575 17.8391 4.86433 17.6174 4.81394 17.3554L4.11514 13.8852L0.644668 13.1831C0.382619 13.1293 0.160885 12.9479 0.060097 12.7027C-0.0406911 12.4575 -0.0138142 12.1719 0.134008 11.9469L2.0893 9.00073L0.134008 6.05123C-0.0138142 5.82616 -0.0406911 5.54397 0.060097 5.29538C0.160885 5.04679 0.382619 4.86539 0.644668 4.815L4.11514 4.11626L4.81729 0.646069C4.87105 0.384042 5.05247 0.162326 5.29772 0.0615456ZM6.28544 9.00073C6.28544 7.50918 7.4949 6.29982 8.98656 6.29982C10.4782 6.29982 11.6877 7.50918 11.6877 9.00073C11.6877 10.4923 10.4782 11.7016 8.98656 11.7016C7.4949 11.7016 6.28544 10.4923 6.28544 9.00073ZM13.3003 9.00073C13.3003 6.61896 11.3685 4.68735 8.98656 4.68735C6.6046 4.68735 4.67283 6.61896 4.67283 9.00073C4.67283 11.3825 6.6046 13.3141 8.98656 13.3141C11.3685 13.3141 13.3003 11.3825 13.3003 9.00073Z" fill="currentColor"></path></symbol><symbol id="vk" viewBox="0 0 15 15"><path d="M1.05469 1.05469C0 2.10938 0 3.80692 0 7.19866V7.80134C0 11.1931 0 12.8906 1.05469 13.9453C2.10938 15 3.80692 15 7.19866 15H7.79799C11.1931 15 12.8906 15 13.942 13.9453C14.9933 12.8906 15 11.1931 15 7.80134V7.20201C15 3.80692 15 2.10937 13.9453 1.05804C12.8906 0.00669639 11.1931 0 7.80134 0H7.19866C3.80692 0 2.10938 0 1.05469 1.05469ZM2.53125 4.56362H4.24219C4.29911 7.42634 5.56138 8.63839 6.5625 8.88951V4.56362H8.17634V7.03125C9.16406 6.92411 10.202 5.79911 10.5502 4.56362H12.1641C12.0335 5.20647 11.769 5.8125 11.3906 6.34821C11.0123 6.88393 10.5301 7.33594 9.96763 7.67411C10.5938 7.98549 11.1462 8.42411 11.5882 8.96317C12.0301 9.50223 12.3549 10.1317 12.5357 10.8047H10.7612C10.5971 10.2188 10.2656 9.69643 9.80357 9.29799C9.34152 8.89955 8.77567 8.64844 8.17299 8.57478V10.8047H7.97879C4.56027 10.8047 2.61161 8.46094 2.5279 4.56027L2.53125 4.56362Z" fill="currentColor"></path></symbol></svg>